Eczar-Bold.ufo
<glyph name="parenleft" format="1">
  <advance width="358"/>
  <unicode hex="0028"/>
  <outline>
    <contour>
      <point x="217" y="-155" type="curve"/>
      <point x="319" y="-98" type="line"/>
      <point x="250" y="39"/>
      <point x="206" y="171"/>
      <point x="206" y="307" type="curve"/>
      <point x="206" y="429"/>
      <point x="244" y="550"/>
      <point x="322" y="676" type="curve"/>
      <point x="222" y="732" type="line"/>
      <point x="90" y="596"/>
      <point x="31" y="453"/>
      <point x="31" y="303" type="curve"/>
      <point x="31" y="137"/>
      <point x="101" y="-16"/>
    </contour>
  </outline>
</glyph>
<glyph name="period" format="1">
  <advance width="290"/>
  <unicode hex="002E"/>
  <outline>
    <contour>
      <point x="206" y="-42" type="curve"/>
      <point x="240" y="-19"/>
      <point x="275" y="27"/>
      <point x="290" y="66" type="curve"/>
      <point x="269" y="94"/>
      <point x="224" y="135"/>
      <point x="185" y="151" type="curve"/>
      <point x="151" y="132"/>
      <point x="117" y="86"/>
      <point x="96" y="43" type="curve"/>
      <point x="119" y="11"/>
      <point x="171" y="-28"/>
    </contour>
  </outline>
</glyph>
<glyph name="C" format="1">
  <advance width="599"/>
  <unicode hex="0043"/>
  <outline>
    <contour>
      <point x="381" y="-17" type="curve"/>
      <point x="591" y="72" type="line"/>
      <point x="563" y="154" type="line"/>
      <point x="393" y="100" type="line"/>
      <point x="259" y="97"/>
      <point x="193" y="208"/>
      <point x="193" y="348" type="curve"/>
      <point x="193" y="436"/>
      <point x="219" y="531"/>
      <point x="280" y="586" type="curve"/>
      <point x="389" y="581"/>
      <point x="468" y="540"/>
      <point x="541" y="479" type="curve"/>
      <point x="572" y="617" type="line"/>
      <point x="529" y="648"/>
      <point x="464" y="682"/>
      <point x="361" y="682" type="curve"/>
      <point x="124" y="682"/>
      <point x="11" y="502"/>
      <point x="11" y="322" type="curve"/>
      <point x="11" y="162"/>
      <point x="101" y="-28"/>
    </contour>
    <contour>
      <point x="399" y="608" type="line"/>
      <point x="440" y="425" type="line"/>
      <point x="548" y="425" type="line"/>
      <point x="564" y="481"/>
      <point x="576" y="575"/>
      <point x="572" y="617" type="curve"/>
    </contour>
    <contour>
      <point x="336" y="0" type="move" name="bottom"/>
    </contour>
    <contour>
      <point x="336" y="650" type="move" name="top"/>
    </contour>
  </outline>
</glyph>
<glyph name="Z" format="1">
  <advance width="660"/>
  <unicode hex="005A"/>
  <outline>
    <contour>
      <point x="32" y="79" type="line"/>
      <point x="81" y="-1" type="line"/>
      <point x="136" y="37" type="line"/>
      <point x="215" y="47" type="line"/>
      <point x="619" y="585" type="line"/>
      <point x="580" y="662" type="line"/>
      <point x="518" y="619" type="line"/>
      <point x="429" y="607" type="line"/>
    </contour>
    <contour>
      <point x="144" y="91" type="line"/>
      <point x="81" y="-1" type="line"/>
      <point x="599" y="0" type="line"/>
      <point x="585" y="108" type="line"/>
    </contour>
    <contour>
      <point x="433" y="22" type="line"/>
      <point x="598" y="0" type="line"/>
      <point x="612" y="81"/>
      <point x="621" y="144"/>
      <point x="624" y="223" type="curve"/>
      <point x="518" y="237" type="line"/>
    </contour>
    <contour>
      <point x="73" y="429" type="curve"/>
      <point x="172" y="429" type="line"/>
      <point x="224" y="603" type="line"/>
      <point x="66" y="662" type="line"/>
      <point x="60" y="595"/>
      <point x="61" y="501"/>
    </contour>
    <contour>
      <point x="66" y="662" type="line"/>
      <point x="98" y="555" type="line"/>
      <point x="547" y="589" type="line"/>
      <point x="580" y="662" type="line"/>
    </contour>
  </outline>
</glyph>
<glyph name="bracketleft" format="1">
  <advance width="417"/>
  <unicode hex="005B"/>
  <outline>
    <contour>
      <point x="88" y="712" type="line"/>
      <point x="88" y="-122" type="line"/>
      <point x="383" y="-122" type="line"/>
      <point x="389" y="-60" type="line"/>
      <point x="259" y="-26" type="line"/>
      <point x="259" y="616" type="line"/>
      <point x="389" y="650" type="line"/>
      <point x="383" y="712" type="line"/>
    </contour>
  </outline>
</glyph>
<glyph name="backslash" format="1">
  <advance width="410"/>
  <unicode hex="005C"/>
  <outline>
    <contour>
      <point x="-29" y="681" type="line"/>
      <point x="278" y="-126" type="line"/>
      <point x="406" y="-78" type="line"/>
      <point x="98" y="731" type="line"/>
    </contour>
  </outline>
</glyph>
<glyph name="bracketright" format="1">
  <advance width="418"/>
  <unicode hex="005D"/>
  <outline>
    <contour>
      <point x="28" y="-60" type="line"/>
      <point x="34" y="-122" type="line"/>
      <point x="329" y="-122" type="line"/>
      <point x="329" y="712" type="line"/>
      <point x="34" y="712" type="line"/>
      <point x="28" y="650" type="line"/>
      <point x="158" y="616" type="line"/>
      <point x="158" y="-26" type="line"/>
    </contour>
  </outline>
</glyph>
<glyph name="l" format="1">
  <advance width="355"/>
  <unicode hex="006C"/>
  <outline>
    <contour>
      <point x="90" y="684" type="line"/>
      <point x="90" y="0" type="line"/>
      <point x="263" y="0" type="line"/>
      <point x="263" y="687" type="line"/>
      <point x="209" y="737" type="line"/>
    </contour>
    <contour>
      <point x="14" y="35" type="curve"/>
      <point x="16" y="0" type="line"/>
      <point x="128" y="0" type="line"/>
      <point x="138" y="83" type="line"/>
      <point x="100" y="74"/>
      <point x="52" y="57"/>
    </contour>
    <contour>
      <point x="200" y="103" type="curve"/>
      <point x="175" y="0" type="line"/>
      <point x="333" y="0" type="line"/>
      <point x="335" y="49" type="line"/>
      <point x="298" y="75"/>
      <point x="242" y="93"/>
    </contour>
    <contour>
      <point x="16" y="650" type="line"/>
      <point x="133" y="629" type="line"/>
      <point x="209" y="666" type="line"/>
      <point x="209" y="737" type="line"/>
      <point x="139" y="733"/>
      <point x="69" y="721"/>
      <point x="11" y="700" type="curve"/>
    </contour>
    <contour>
      <point x="186" y="0" type="move" name="bottom"/>
    </contour>
    <contour>
      <point x="171" y="735" type="move" name="top"/>
    </contour>
    <contour>
      <point x="338" y="468" type="move" name="topright"/>
    </contour>
  </outline>
</glyph>
<glyph name="multiply" format="1">
  <advance width="557"/>
  <unicode hex="00D7"/>
  <outline>
    <contour>
      <point x="278" y="168" type="line"/>
      <point x="423" y="18" type="line"/>
      <point x="497" y="92" type="line"/>
      <point x="350" y="240" type="line"/>
      <point x="497" y="390" type="line"/>
      <point x="424" y="460" type="line"/>
      <point x="281" y="311" type="line"/>
      <point x="135" y="461" type="line"/>
      <point x="60" y="389" type="line"/>
      <point x="207" y="238" type="line"/>
      <point x="62" y="90" type="line"/>
      <point x="134" y="19" type="line"/>
    </contour>
  </outline>
</glyph>
<glyph name="macroncomb" format="1">
  <advance width="0"/>
  <unicode hex="0304"/>
  <outline>
    <contour>
      <point x="-166" y="641" type="curve"/>
      <point x="-160" y="567" type="line"/>
      <point x="151" y="567" type="line"/>
      <point x="198" y="613" type="line"/>
      <point x="193" y="666" type="line"/>
      <point x="-53" y="666" type="line"/>
      <point x="-84" y="666"/>
      <point x="-127" y="660"/>
    </contour>
    <contour>
      <point x="1" y="473" type="move" name="_top"/>
    </contour>
  </outline>
</glyph>
<glyph name="hungarumlautcomb" format="1">
  <advance width="0"/>
  <unicode hex="030B"/>
  <outline>
    <contour>
      <point x="28" y="592" type="line"/>
      <point x="106" y="534" type="line"/>
      <point x="159" y="587"/>
      <point x="217" y="648"/>
      <point x="274" y="697" type="curve"/>
      <point x="169" y="774" type="line"/>
    </contour>
    <contour>
      <point x="-182" y="592" type="line"/>
      <point x="-104" y="534" type="line"/>
      <point x="-51" y="587"/>
      <point x="7" y="648"/>
      <point x="64" y="697" type="curve"/>
      <point x="-41" y="774" type="line"/>
    </contour>
    <contour>
      <point x="0" y="473" type="move" name="_top"/>
    </contour>
  </outline>
</glyph>
<glyph name="ogonekcomb" format="1">
  <advance width="0"/>
  <unicode hex="0328"/>
  <outline>
    <contour>
      <point x="-90" y="-256" type="curve"/>
      <point x="36" y="-190" type="line"/>
      <point x="13" y="-139" type="line"/>
      <point x="-67" y="-185"/>
      <point x="-122" y="-163"/>
      <point x="-122" y="-111" type="curve"/>
      <point x="-122" y="-59"/>
      <point x="-67" y="-17"/>
      <point x="10" y="29" type="curve"/>
      <point x="-14" y="51" type="line"/>
      <point x="-164" y="5"/>
      <point x="-241" y="-71"/>
      <point x="-241" y="-144" type="curve"/>
      <point x="-241" y="-208"/>
      <point x="-181" y="-266"/>
    </contour>
    <contour>
      <point x="0" y="9" type="move" name="_ogonek"/>
    </contour>
  </outline>
</glyph>
<glyph name="numeralsign" format="1">
  <advance width="265"/>
  <unicode hex="0374"/>
  <outline>
    <contour>
      <point x="38" y="541" type="line"/>
      <point x="115" y="513" type="line"/>
      <point x="227" y="720" type="line"/>
      <point x="224" y="753" type="line"/>
      <point x="197" y="777"/>
      <point x="138" y="800"/>
      <point x="92" y="794" type="curve"/>
    </contour>
  </outline>
</glyph>
<glyph name="tonos" format="1">
  <advance width="290"/>
  <unicode hex="0384"/>
  <outline>
    <contour>
      <point x="85" y="554" type="line"/>
      <point x="146" y="531" type="line"/>
      <point x="257" y="728" type="line"/>
      <point x="254" y="761" type="line"/>
      <point x="230" y="779"/>
      <point x="179" y="799"/>
      <point x="138" y="794" type="curve"/>
    </contour>
    <contour>
      <point x="150" y="473" type="move" name="_top"/>
    </contour>
  </outline>
</glyph>
<glyph name="dieresistonos" format="1">
  <advance width="290"/>
  <unicode hex="0385"/>
  <outline>
    <contour>
      <point x="101" y="549" type="line"/>
      <point x="167" y="531" type="line"/>
      <point x="253" y="732" type="line"/>
      <point x="250" y="765" type="line"/>
      <point x="226" y="784"/>
      <point x="173" y="800"/>
      <point x="129" y="793" type="curve"/>
    </contour>
    <contour>
      <point x="-11" y="549" type="curve"/>
      <point x="30" y="570"/>
      <point x="56" y="601"/>
      <point x="70" y="644" type="curve"/>
      <point x="58" y="687"/>
      <point x="18" y="721"/>
      <point x="-26" y="739" type="curve"/>
      <point x="-69" y="716"/>
      <point x="-102" y="680"/>
      <point x="-110" y="629" type="curve"/>
      <point x="-89" y="590"/>
      <point x="-57" y="564"/>
    </contour>
    <contour>
      <point x="358" y="549" type="curve"/>
      <point x="399" y="570"/>
      <point x="425" y="601"/>
      <point x="439" y="644" type="curve"/>
      <point x="427" y="687"/>
      <point x="387" y="721"/>
      <point x="343" y="739" type="curve"/>
      <point x="300" y="716"/>
      <point x="267" y="680"/>
      <point x="259" y="629" type="curve"/>
      <point x="280" y="590"/>
      <point x="312" y="564"/>
    </contour>
    <contour>
      <point x="160" y="473" type="move" name="_top"/>
    </contour>
  </outline>
</glyph>
<glyph name="Gamma" format="1">
  <advance width="594"/>
  <unicode hex="0393"/>
  <outline>
    <contour>
      <point x="109" y="662" type="line"/>
      <point x="109" y="0" type="line"/>
      <point x="290" y="0" type="line"/>
      <point x="290" y="662" type="line"/>
    </contour>
    <contour>
      <point x="24" y="32" type="curve"/>
      <point x="30" y="0" type="line"/>
      <point x="124" y="0" type="line"/>
      <point x="123" y="85" type="line"/>
      <point x="86" y="69"/>
      <point x="53" y="52"/>
    </contour>
    <contour>
      <point x="274" y="75" type="line"/>
      <point x="271" y="0" type="line"/>
      <point x="411" y="0" type="line"/>
      <point x="412" y="53" type="line"/>
    </contour>
    <contour>
      <point x="34" y="609" type="line"/>
      <point x="156" y="591" type="line"/>
      <point x="157" y="662" type="line"/>
      <point x="35" y="662" type="line"/>
    </contour>
    <contour>
      <point x="252" y="576" type="line"/>
      <point x="569" y="554" type="line"/>
      <point x="583" y="662" type="line"/>
      <point x="177" y="662" type="line"/>
    </contour>
    <contour>
      <point x="433" y="644" type="line"/>
      <point x="465" y="457" type="line"/>
      <point x="565" y="457" type="line"/>
      <point x="579" y="525"/>
      <point x="585" y="619"/>
      <point x="583" y="662" type="curve"/>
    </contour>
  </outline>
</glyph>
<glyph name="Delta" format="1">
  <advance width="679"/>
  <unicode hex="0394"/>
  <outline>
    <contour>
      <point x="20" y="81" type="line"/>
      <point x="54" y="0" type="line"/>
      <point x="615" y="0" type="line"/>
      <point x="654" y="95" type="line"/>
      <point x="398" y="686" type="line"/>
      <point x="241" y="646" type="line"/>
      <point x="480" y="61" type="line"/>
      <point x="570" y="119" type="line"/>
      <point x="86" y="112" type="line"/>
      <point x="145" y="78" type="line"/>
      <point x="367" y="625" type="line"/>
      <point x="272" y="644" type="line"/>
    </contour>
  </outline>
</glyph>
<glyph name="beta" format="1">
  <advance width="535"/>
  <unicode hex="03B2"/>
  <outline>
    <contour>
      <point x="29" y="-200" type="line"/>
      <point x="61" y="-224" type="line"/>
      <point x="116" y="-222"/>
      <point x="181" y="-205"/>
      <point x="213" y="-187" type="curve"/>
      <point x="114" y="121" type="line"/>
      <point x="137" y="149" type="line"/>
      <point x="134" y="168"/>
      <point x="132" y="190"/>
      <point x="132" y="220" type="curve"/>
      <point x="132" y="374" type="line" smooth="yes"/>
      <point x="132" y="499"/>
      <point x="188" y="563"/>
      <point x="298" y="563" type="curve"/>
      <point x="332" y="563"/>
      <point x="361" y="557"/>
      <point x="380" y="546" type="curve"/>
      <point x="385" y="538"/>
      <point x="388" y="527"/>
      <point x="388" y="514" type="curve"/>
      <point x="388" y="448"/>
      <point x="321" y="403"/>
      <point x="234" y="406" type="curve"/>
      <point x="283" y="360" type="line"/>
      <point x="404" y="364"/>
      <point x="482" y="423"/>
      <point x="482" y="512" type="curve"/>
      <point x="482" y="640"/>
      <point x="392" y="735"/>
      <point x="269" y="735" type="curve"/>
      <point x="127" y="735"/>
      <point x="39" y="624"/>
      <point x="39" y="446" type="curve"/>
      <point x="39" y="238" type="line" smooth="yes"/>
      <point x="39" y="143"/>
      <point x="38" y="79"/>
      <point x="35" y="7" type="curve"/>
    </contour>
    <contour>
      <point x="311" y="-20" type="curve"/>
      <point x="425" y="-20"/>
      <point x="515" y="78"/>
      <point x="515" y="200" type="curve"/>
      <point x="515" y="301"/>
      <point x="452" y="368"/>
      <point x="333" y="393" type="curve"/>
      <point x="252" y="308" type="line"/>
      <point x="342" y="301"/>
      <point x="412" y="271"/>
      <point x="427" y="233" type="curve"/>
      <point x="420" y="189"/>
      <point x="357" y="155"/>
      <point x="255" y="155" type="curve"/>
      <point x="205" y="155"/>
      <point x="152" y="162"/>
      <point x="125" y="176" type="curve"/>
      <point x="102" y="127" type="line"/>
      <point x="140" y="40"/>
      <point x="225" y="-20"/>
    </contour>
    <contour>
      <point x="191" y="304" type="curve"/>
      <point x="223" y="281" type="line"/>
      <point x="368" y="321" type="line"/>
      <point x="350" y="412" type="line"/>
      <point x="184" y="423" type="line"/>
      <point x="178" y="388"/>
      <point x="181" y="338"/>
    </contour>
  </outline>
</glyph>
<glyph name="gamma" format="1">
  <advance width="545"/>
  <unicode hex="03B3"/>
  <outline>
    <contour>
      <point x="159" y="-197" type="line"/>
      <point x="202" y="-223" type="line"/>
      <point x="252" y="-223"/>
      <point x="312" y="-214"/>
      <point x="352" y="-200" type="curve"/>
      <point x="308" y="12" type="line"/>
      <point x="299" y="-27" type="line"/>
      <point x="429" y="65"/>
      <point x="523" y="248"/>
      <point x="523" y="390" type="curve"/>
      <point x="523" y="416"/>
      <point x="522" y="437"/>
      <point x="518" y="460" type="curve"/>
      <point x="484" y="481"/>
      <point x="435" y="492"/>
      <point x="373" y="494" type="curve"/>
      <point x="348" y="453" type="line"/>
      <point x="357" y="416"/>
      <point x="361" y="384"/>
      <point x="361" y="345" type="curve"/>
      <point x="361" y="215"/>
      <point x="302" y="86"/>
      <point x="224" y="51" type="curve"/>
      <point x="248" y="58" type="line"/>
      <point x="287" y="202" type="line"/>
      <point x="269" y="394"/>
      <point x="213" y="496"/>
      <point x="123" y="496" type="curve"/>
      <point x="73" y="496"/>
      <point x="20" y="455"/>
      <point x="-10" y="396" type="curve"/>
      <point x="8" y="342" type="line"/>
      <point x="102" y="350" type="line"/>
      <point x="122" y="304"/>
      <point x="141" y="245"/>
      <point x="160" y="169" type="curve"/>
      <point x="211" y="-39" type="line"/>
      <point x="207" y="29" type="line"/>
    </contour>
    <contour>
      <point x="198" y="55" type="line"/>
      <point x="217" y="20" type="line"/>
      <point x="283" y="59" type="line"/>
      <point x="224" y="92" type="line"/>
    </contour>
  </outline>
</glyph>
<glyph name="theta" format="1">
  <advance width="533"/>
  <unicode hex="03B8"/>
  <outline>
    <contour>
      <point x="260" y="-20" type="curve"/>
      <point x="413" y="-20"/>
      <point x="511" y="129"/>
      <point x="511" y="360" type="curve"/>
      <point x="511" y="595"/>
      <point x="422" y="735"/>
      <point x="273" y="735" type="curve"/>
      <point x="120" y="735"/>
      <point x="22" y="586"/>
      <point x="22" y="355" type="curve"/>
      <point x="22" y="120"/>
      <point x="111" y="-20"/>
    </contour>
    <contour>
      <point x="225" y="155" type="curve"/>
      <point x="192" y="155"/>
      <point x="162" y="161"/>
      <point x="140" y="170" type="curve"/>
      <point x="120" y="201"/>
      <point x="108" y="253"/>
      <point x="108" y="311" type="curve"/>
      <point x="108" y="485"/>
      <point x="166" y="560"/>
      <point x="308" y="560" type="curve"/>
      <point x="340" y="560"/>
      <point x="371" y="554"/>
      <point x="392" y="544" type="curve"/>
      <point x="412" y="513"/>
      <point x="425" y="461"/>
      <point x="425" y="403" type="curve"/>
      <point x="425" y="229"/>
      <point x="366" y="155"/>
    </contour>
    <contour>
      <point x="90" y="316" type="line"/>
      <point x="449" y="294" type="line"/>
      <point x="452" y="423" type="line"/>
      <point x="93" y="391" type="line"/>
    </contour>
  </outline>
</glyph>
<glyph name="lamda" format="1">
  <advance width="563"/>
  <unicode hex="03BB"/>
  <outline>
    <contour>
      <point x="468" y="-14" type="curve"/>
      <point x="512" y="-14"/>
      <point x="561" y="35"/>
      <point x="581" y="99" type="curve"/>
      <point x="562" y="142" type="line"/>
      <point x="408" y="127" type="line"/>
      <point x="456" y="92" type="line"/>
      <point x="360" y="470" type="line" smooth="yes"/>
      <point x="312" y="665"/>
      <point x="246" y="735"/>
      <point x="114" y="735" type="curve"/>
      <point x="80" y="735"/>
      <point x="35" y="727"/>
      <point x="6" y="716" type="curve"/>
      <point x="6" y="671"/>
      <point x="21" y="608"/>
      <point x="40" y="572" type="curve"/>
      <point x="72" y="552" type="line"/>
      <point x="194" y="599" type="line"/>
      <point x="144" y="642" type="line"/>
      <point x="163" y="612"/>
      <point x="173" y="587"/>
      <point x="188" y="544" type="curve"/>
      <point x="204" y="495"/>
      <point x="218" y="442"/>
      <point x="235" y="404" type="curve"/>
      <point x="362" y="104" type="line" smooth="yes"/>
      <point x="398" y="18"/>
      <point x="427" y="-14"/>
    </contour>
    <contour>
      <point x="124" y="-14" type="curve"/>
      <point x="159" y="13" type="line"/>
      <point x="283" y="393" type="line"/>
      <point x="229" y="489" type="line"/>
      <point x="6" y="62" type="line"/>
      <point x="28" y="24"/>
      <point x="83" y="-12"/>
    </contour>
  </outline>
</glyph>
<glyph name="mu" format="1">
  <advance width="597"/>
  <unicode hex="03BC"/>
  <outline>
    <contour>
      <point x="37" y="-200" type="line"/>
      <point x="80" y="-223" type="line"/>
      <point x="140" y="-222"/>
      <point x="200" y="-212"/>
      <point x="224" y="-197" type="curve"/>
      <point x="149" y="75" type="line"/>
      <point x="149" y="148" type="line"/>
      <point x="184" y="230" type="line"/>
      <point x="229" y="463" type="line"/>
      <point x="189" y="497" type="line"/>
      <point x="128" y="497"/>
      <point x="58" y="482"/>
      <point x="23" y="463" type="curve"/>
      <point x="96" y="16" type="line"/>
      <point x="77" y="195" type="line"/>
    </contour>
    <contour>
      <point x="270" y="-20" type="curve"/>
      <point x="313" y="-20"/>
      <point x="359" y="25"/>
      <point x="389" y="96" type="curve"/>
      <point x="375" y="184" type="line"/>
      <point x="354" y="161"/>
      <point x="310" y="146"/>
      <point x="264" y="146" type="curve"/>
      <point x="216" y="146"/>
      <point x="163" y="161"/>
      <point x="138" y="183" type="curve"/>
      <point x="133" y="81" type="line"/>
      <point x="163" y="22"/>
      <point x="220" y="-20"/>
    </contour>
    <contour>
      <point x="482" y="-14" type="curve"/>
      <point x="524" y="-14"/>
      <point x="569" y="31"/>
      <point x="594" y="99" type="curve"/>
      <point x="575" y="142" type="line"/>
      <point x="409" y="124" type="line"/>
      <point x="440" y="103" type="line"/>
      <point x="540" y="463" type="line"/>
      <point x="500" y="497" type="line"/>
      <point x="438" y="497"/>
      <point x="369" y="483"/>
      <point x="334" y="463" type="curve"/>
      <point x="364" y="154" type="line"/>
      <point x="364" y="131" type="line"/>
      <point x="380" y="45"/>
      <point x="428" y="-14"/>
    </contour>
  </outline>
</glyph>
<glyph name="xi" format="1">
  <advance width="432"/>
  <unicode hex="03BE"/>
  <outline>
    <contour>
      <point x="226" y="-138" type="line"/>
      <point x="287" y="-186" type="line"/>
      <point x="386" y="-107"/>
      <point x="426" y="-50"/>
      <point x="426" y="17" type="curve"/>
      <point x="426" y="61"/>
      <point x="409" y="99"/>
      <point x="367" y="123" type="curve"/>
      <point x="337" y="140"/>
      <point x="288" y="155"/>
      <point x="220" y="170" type="curve"/>
      <point x="132" y="191"/>
      <point x="110" y="197"/>
      <point x="93" y="207" type="curve"/>
      <point x="112" y="243"/>
      <point x="195" y="272"/>
      <point x="277" y="272" type="curve"/>
      <point x="180" y="337" type="line"/>
      <point x="84" y="326"/>
      <point x="24" y="273"/>
      <point x="24" y="208" type="curve"/>
      <point x="24" y="160"/>
      <point x="39" y="115"/>
      <point x="65" y="83" type="curve"/>
      <point x="92" y="50"/>
      <point x="134" y="26"/>
      <point x="206" y="4" type="curve"/>
      <point x="270" y="-14"/>
      <point x="301" y="-25"/>
      <point x="350" y="-46" type="curve"/>
      <point x="330" y="-16" type="line"/>
    </contour>
    <contour>
      <point x="223" y="276" type="line"/>
      <point x="379" y="250" type="line"/>
      <point x="391" y="292"/>
      <point x="398" y="337"/>
      <point x="393" y="375" type="curve"/>
      <point x="359" y="400" type="line"/>
      <point x="178" y="357" type="line"/>
      <point x="160" y="311" type="line"/>
    </contour>
    <contour>
      <point x="170" y="321" type="curve"/>
      <point x="270" y="354" type="line"/>
      <point x="198" y="365"/>
      <point x="156" y="387"/>
      <point x="139" y="419" type="curve"/>
      <point x="164" y="464"/>
      <point x="284" y="512"/>
      <point x="422" y="524" type="curve"/>
      <point x="444" y="566" type="line"/>
      <point x="436" y="599"/>
      <point x="403" y="649"/>
      <point x="363" y="688" type="curve"/>
      <point x="192" y="638"/>
      <point x="43" y="515"/>
      <point x="43" y="424" type="curve"/>
      <point x="43" y="375"/>
      <point x="90" y="337"/>
    </contour>
    <contour>
      <point x="169" y="603" type="curve"/>
      <point x="183" y="583" type="line"/>
      <point x="286" y="650" type="line"/>
      <point x="226" y="650"/>
      <point x="180" y="654"/>
      <point x="136" y="664" type="curve"/>
      <point x="79" y="742" type="line"/>
      <point x="12" y="728" type="line"/>
      <point x="-14" y="593"/>
      <point x="31" y="557"/>
    </contour>
  </outline>
</glyph>
<glyph name="omicron" format="1">
  <advance width="523"/>
  <unicode hex="03BF"/>
  <outline>
    <contour>
      <point x="254" y="-20" type="curve"/>
      <point x="398" y="-20"/>
      <point x="503" y="94"/>
      <point x="503" y="251" type="curve"/>
      <point x="503" y="398"/>
      <point x="407" y="501"/>
      <point x="269" y="501" type="curve"/>
      <point x="125" y="501"/>
      <point x="19" y="386"/>
      <point x="19" y="229" type="curve"/>
      <point x="19" y="82"/>
      <point x="115" y="-20"/>
    </contour>
    <contour>
      <point x="217" y="155" type="curve"/>
      <point x="180" y="155"/>
      <point x="145" y="159"/>
      <point x="119" y="169" type="curve"/>
      <point x="110" y="181"/>
      <point x="105" y="197"/>
      <point x="105" y="216" type="curve"/>
      <point x="105" y="283"/>
      <point x="175" y="325"/>
      <point x="306" y="325" type="curve"/>
      <point x="343" y="325"/>
      <point x="377" y="321"/>
      <point x="404" y="311" type="curve"/>
      <point x="413" y="299"/>
      <point x="418" y="283"/>
      <point x="418" y="265" type="curve"/>
      <point x="418" y="197"/>
      <point x="348" y="155"/>
    </contour>
    <contour>
      <point x="286" y="473" type="move" name="top"/>
    </contour>
  </outline>
</glyph>
<glyph name="sigma" format="1">
  <advance width="607"/>
  <unicode hex="03C3"/>
  <outline>
    <contour>
      <point x="246" y="-20" type="curve"/>
      <point x="376" y="-20"/>
      <point x="474" y="81"/>
      <point x="474" y="210" type="curve"/>
      <point x="474" y="267"/>
      <point x="457" y="318"/>
      <point x="424" y="364" type="curve"/>
      <point x="348" y="348" type="line"/>
      <point x="372" y="327"/>
      <point x="386" y="295"/>
      <point x="386" y="262" type="curve"/>
      <point x="386" y="196"/>
      <point x="318" y="155"/>
      <point x="214" y="155" type="curve"/>
      <point x="166" y="155"/>
      <point x="140" y="159"/>
      <point x="119" y="170" type="curve"/>
      <point x="109" y="182"/>
      <point x="105" y="197"/>
      <point x="105" y="215" type="curve"/>
      <point x="105" y="280"/>
      <point x="172" y="315"/>
      <point x="306" y="315" type="curve"/>
      <point x="430" y="315" type="line"/>
      <point x="573" y="299" type="line"/>
      <point x="597" y="341" type="line"/>
      <point x="599" y="383"/>
      <point x="584" y="458"/>
      <point x="566" y="495" type="curve"/>
      <point x="371" y="479" type="line"/>
      <point x="273" y="479" type="line" smooth="yes"/>
      <point x="122" y="479"/>
      <point x="19" y="375"/>
      <point x="19" y="226" type="curve"/>
      <point x="19" y="80"/>
      <point x="112" y="-20"/>
    </contour>
  </outline>
</glyph>
<glyph name="tau" format="1">
  <advance width="574"/>
  <unicode hex="03C4"/>
  <outline>
    <contour>
      <point x="-6" y="332" type="curve"/>
      <point x="24" y="293" type="line"/>
      <point x="112" y="326" type="line"/>
      <point x="532" y="322" type="line"/>
      <point x="563" y="353" type="line"/>
      <point x="568" y="395"/>
      <point x="554" y="467"/>
      <point x="534" y="502" type="curve"/>
      <point x="347" y="479" type="line"/>
      <point x="132" y="479" type="line"/>
      <point x="72" y="465"/>
      <point x="20" y="410"/>
    </contour>
    <contour>
      <point x="337" y="-14" type="curve"/>
      <point x="395" y="-14"/>
      <point x="458" y="37"/>
      <point x="479" y="102" type="curve"/>
      <point x="460" y="145" type="line"/>
      <point x="264" y="125" type="line"/>
      <point x="307" y="98" type="line"/>
      <point x="361" y="386" type="line"/>
      <point x="212" y="385" type="line"/>
      <point x="216" y="196" type="line" smooth="yes"/>
      <point x="218" y="69"/>
      <point x="265" y="-14"/>
    </contour>
  </outline>
</glyph>
<glyph name="kaisymbol" format="1">
  <advance width="559"/>
  <unicode hex="03D7"/>
  <outline>
    <contour>
      <point x="195" y="-10" type="curve"/>
      <point x="236" y="98"/>
      <point x="275" y="167"/>
      <point x="324" y="213" type="curve"/>
      <point x="375" y="261"/>
      <point x="438" y="303"/>
      <point x="522" y="342" type="curve"/>
      <point x="538" y="384" type="line"/>
      <point x="529" y="427"/>
      <point x="501" y="479"/>
      <point x="476" y="499" type="curve"/>
      <point x="397" y="471"/>
      <point x="330" y="422"/>
      <point x="272" y="350" type="curve"/>
      <point x="223" y="289"/>
      <point x="182" y="204"/>
      <point x="137" y="74" type="curve"/>
      <point x="143" y="56" type="line"/>
      <point x="216" y="466" type="line"/>
      <point x="177" y="497" type="line"/>
      <point x="117" y="496"/>
      <point x="59" y="483"/>
      <point x="25" y="463" type="curve"/>
      <point x="56" y="272" type="line"/>
      <point x="63" y="3" type="line"/>
      <point x="91" y="-10"/>
      <point x="156" y="-16"/>
    </contour>
    <contour>
      <point x="156" y="-221" type="curve"/>
      <point x="259" y="-221"/>
      <point x="364" y="-170"/>
      <point x="440" y="-91" type="curve"/>
      <point x="506" y="-22"/>
      <point x="538" y="46"/>
      <point x="551" y="100" type="curve"/>
      <point x="533" y="141" type="line"/>
      <point x="382" y="126" type="line"/>
      <point x="433" y="87" type="line"/>
      <point x="384" y="185"/>
      <point x="366" y="231"/>
      <point x="351" y="290" type="curve"/>
      <point x="248" y="212" type="line"/>
      <point x="342" y="68" type="line" smooth="yes"/>
      <point x="379" y="12"/>
      <point x="403" y="-7"/>
      <point x="438" y="-7" type="curve"/>
      <point x="424" y="25" type="line"/>
      <point x="407" y="-33"/>
      <point x="274" y="-88"/>
      <point x="190" y="-87" type="curve"/>
      <point x="80" y="-60" type="line"/>
      <point x="39" y="-90" type="line"/>
      <point x="40" y="-124"/>
      <point x="53" y="-178"/>
      <point x="66" y="-203" type="curve"/>
      <point x="87" y="-215"/>
      <point x="120" y="-221"/>
    </contour>
  </outline>
</glyph>
<glyph name="dvAa" format="1">
  <advance width="1162"/>
  <unicode hex="0906"/>
  <outline>
    <component base="dvA"/>
    <component base="dvMatraAa" xOffset="859"/>
    <contour>
      <point x="851" y="660" type="move" name="abvmBINDU"/>
    </contour>
    <contour>
      <point x="843" y="660" type="move" name="abvmCANDRABINDU"/>
    </contour>
  </outline>
</glyph>
<glyph name="dvShortE" format="1">
  <advance width="604"/>
  <unicode hex="090E"/>
  <outline>
    <component base="dvE"/>
    <component base="dvMatraShortE" xOffset="597"/>
    <contour>
      <point x="590" y="655" type="move" name="abvmBINDU"/>
    </contour>
  </outline>
</glyph>
<glyph name="dvAi" format="1">
  <advance width="604"/>
  <unicode hex="0910"/>
  <outline>
    <component base="dvE"/>
    <component base="dvMatraE" xOffset="608"/>
    <contour>
      <point x="550" y="655" type="move" name="abvmBINDU"/>
    </contour>
  </outline>
</glyph>
<glyph name="dvAu" format="1">
  <advance width="1162"/>
  <unicode hex="0914"/>
  <outline>
    <component base="dvA"/>
    <component base="dvMatraAu" xOffset="859"/>
    <contour>
      <point x="1140" y="655" type="move" name="abvmBINDU"/>
    </contour>
  </outline>
</glyph>
<glyph name="dvMatraOE" format="1">
  <advance width="0"/>
  <unicode hex="093A"/>
  <outline>
    <contour>
      <point x="-224" y="602" type="line"/>
      <point x="-142" y="561" type="line"/>
      <point x="-113" y="578" type="line"/>
      <point x="-113" y="835" type="line"/>
      <point x="-224" y="835" type="line"/>
    </contour>
    <contour>
      <point x="-162" y="473" type="move" name="_abvmTOP"/>
    </contour>
  </outline>
</glyph>
<glyph name="dvMatraOOE" format="1">
  <advance width="303"/>
  <unicode hex="093B"/>
  <outline>
    <contour>
      <point x="74" y="602" type="line"/>
      <point x="155" y="561" type="line"/>
      <point x="185" y="578" type="line"/>
      <point x="185" y="835" type="line"/>
      <point x="74" y="835" type="line"/>
    </contour>
    <component base="dvMatraAa"/>
  </outline>
</glyph>
<glyph name="dvMatraVocalicRr" format="1">
  <advance width="0"/>
  <unicode hex="0944"/>
  <outline>
    <contour>
      <point x="-58" y="-416" type="curve"/>
      <point x="8" y="-416"/>
      <point x="64" y="-384"/>
      <point x="101" y="-345" type="curve"/>
      <point x="28" y="-230" type="line"/>
      <point x="-3" y="-267"/>
      <point x="-75" y="-304"/>
      <point x="-114" y="-304" type="curve"/>
      <point x="-132" y="-304"/>
      <point x="-140" y="-295"/>
      <point x="-140" y="-286" type="curve"/>
      <point x="-140" y="-265"/>
      <point x="-97" y="-240"/>
      <point x="-8" y="-222" type="curve"/>
      <point x="14" y="-178" type="line"/>
      <point x="-45" y="-98" type="line"/>
      <point x="-167" y="-122"/>
      <point x="-256" y="-170"/>
      <point x="-256" y="-249" type="curve"/>
      <point x="-256" y="-332"/>
      <point x="-164" y="-416"/>
    </contour>
    <contour>
      <point x="-239" y="-220" type="curve"/>
      <point x="-201" y="-168" type="line"/>
      <point x="-221" y="-162"/>
      <point x="-233" y="-151"/>
      <point x="-233" y="-138" type="curve"/>
      <point x="-233" y="-103"/>
      <point x="-145" y="-74"/>
      <point x="-75" y="-62" type="curve"/>
      <point x="-75" y="62" type="line"/>
      <point x="-110" y="62" type="line"/>
      <point x="-235" y="38"/>
      <point x="-356" y="-1"/>
      <point x="-356" y="-94" type="curve"/>
      <point x="-356" y="-144"/>
      <point x="-321" y="-190"/>
    </contour>
    <contour>
      <point x="-256" y="0" type="move" name="_blwmBOTTOM"/>
    </contour>
  </outline>
</glyph>
<glyph name="dvMatraCandraE" format="1">
  <advance width="0"/>
  <unicode hex="0945"/>
  <outline>
    <contour>
      <point x="-173" y="701" type="curve"/>
      <point x="-66" y="701"/>
      <point x="1" y="780"/>
      <point x="20" y="887" type="curve"/>
      <point x="-103" y="951" type="line"/>
      <point x="-117" y="874"/>
      <point x="-155" y="834"/>
      <point x="-214" y="834" type="curve"/>
      <point x="-267" y="834"/>
      <point x="-310" y="868"/>
      <point x="-351" y="950" type="curve"/>
      <point x="-422" y="892" type="line"/>
      <point x="-368" y="765"/>
      <point x="-270" y="701"/>
    </contour>
    <contour>
      <point x="-173" y="665" type="move" name="_abvmCANDRABINDU"/>
    </contour>
  </outline>
</glyph>
<glyph name="dvMatraE" format="1">
  <advance width="0"/>
  <unicode hex="0947"/>
  <outline>
    <contour>
      <point x="-275" y="734" type="curve"/>
      <point x="-190" y="594" type="line"/>
      <point x="-105" y="634" type="line"/>
      <point x="-207" y="796" type="line" smooth="yes"/>
      <point x="-311" y="965"/>
      <point x="-434" y="1031"/>
      <point x="-603" y="925" type="curve"/>
      <point x="-518" y="762" type="line"/>
      <point x="-401" y="839"/>
      <point x="-333" y="831"/>
    </contour>
    <contour>
      <point x="-163" y="473" type="move" name="_abvmTOP"/>
    </contour>
    <contour>
      <point x="-58" y="655" type="move" name="abvmBINDU"/>
    </contour>
  </outline>
</glyph>
<glyph name="dvUdatta" format="1">
  <advance width="0"/>
  <unicode hex="0951"/>
  <outline>
    <contour>
      <point x="-214" y="751" type="line"/>
      <point x="-133" y="710" type="line"/>
      <point x="-104" y="727" type="line"/>
      <point x="-104" y="969" type="line"/>
      <point x="-185" y="1010" type="line"/>
      <point x="-214" y="993" type="line"/>
    </contour>
    <contour>
      <point x="-159" y="473" type="move" name="_abvmTOP"/>
    </contour>
  </outline>
</glyph>
<glyph name="dvGrave" format="1">
  <advance width="0"/>
  <unicode hex="0953"/>
  <outline>
    <contour>
      <point x="-340" y="888" type="line"/>
      <point x="-164" y="711" type="line"/>
      <point x="-128" y="711" type="line"/>
      <point x="-74" y="773" type="line"/>
      <point x="-247" y="949" type="line"/>
      <point x="-283" y="949" type="line"/>
    </contour>
    <contour>
      <point x="-197" y="473" type="move" name="_abvmTOP"/>
    </contour>
  </outline>
</glyph>
<glyph name="dvMatraUE" format="1">
  <advance width="0"/>
  <unicode hex="0956"/>
  <outline>
    <contour>
      <point x="-268" y="-263" type="curve"/>
      <point x="-183" y="-263"/>
      <point x="-102" y="-226"/>
      <point x="-63" y="-174" type="curve"/>
      <point x="-136" y="-58" type="line"/>
      <point x="-179" y="-101"/>
      <point x="-246" y="-130"/>
      <point x="-318" y="-130" type="curve"/>
      <point x="-378" y="-130"/>
      <point x="-433" y="-110"/>
      <point x="-480" y="-65" type="curve"/>
      <point x="-521" y="-115" type="line"/>
      <point x="-462" y="-219"/>
      <point x="-361" y="-263"/>
    </contour>
    <contour>
      <point x="-261" y="0" type="move" name="_blwmBOTTOM"/>
    </contour>
  </outline>
</glyph>
<glyph name="dvMatraUUE" format="1">
  <advance width="0"/>
  <unicode hex="0957"/>
  <outline>
    <component base="dvMatraUE" yOffset="-210"/>
    <component base="dvMatraUE"/>
    <contour>
      <point x="-261" y="0" type="move" name="_blwmBOTTOM"/>
    </contour>
  </outline>
</glyph>
<glyph name="dvDanda" format="1">
  <advance width="485"/>
  <unicode hex="0964"/>
  <outline>
    <contour>
      <point x="220" y="18" type="line"/>
      <point x="333" y="-62" type="line"/>
      <point x="380" y="-40" type="line"/>
      <point x="380" y="599" type="line"/>
      <point x="267" y="678" type="line"/>
      <point x="220" y="656" type="line"/>
    </contour>
  </outline>
</glyph>
<glyph name="dvThree" format="1">
  <advance width="605"/>
  <unicode hex="0969"/>
  <outline>
    <contour>
      <point x="321" y="-11" type="curve"/>
      <point x="457" y="-11"/>
      <point x="557" y="69"/>
      <point x="557" y="176" type="curve"/>
      <point x="557" y="276"/>
      <point x="471" y="344"/>
      <point x="331" y="402" type="curve"/>
      <point x="295" y="414" type="line"/>
      <point x="244" y="423"/>
      <point x="164" y="407"/>
      <point x="119" y="370" type="curve"/>
      <point x="204" y="233" type="line"/>
      <point x="374" y="299" type="line"/>
      <point x="312" y="294" type="line"/>
      <point x="379" y="287"/>
      <point x="411" y="258"/>
      <point x="411" y="221" type="curve"/>
      <point x="411" y="169"/>
      <point x="348" y="126"/>
      <point x="270" y="126" type="curve"/>
      <point x="239" y="126"/>
      <point x="208" y="133"/>
      <point x="177" y="146" type="curve"/>
      <point x="200" y="14" type="line"/>
      <point x="239" y="-4"/>
      <point x="281" y="-11"/>
    </contour>
    <contour>
      <point x="140" y="51" type="line"/>
      <point x="356" y="-223" type="line"/>
      <point x="433" y="-171" type="line"/>
      <point x="432" y="-126" type="line"/>
      <point x="193" y="80" type="line"/>
    </contour>
    <contour>
      <point x="215" y="-12" type="curve"/>
      <point x="279" y="31" type="line"/>
      <point x="171" y="209" type="line"/>
      <point x="121" y="205" type="line"/>
      <point x="62" y="67" type="line"/>
      <point x="93" y="39"/>
      <point x="162" y="-3"/>
    </contour>
    <contour>
      <point x="228" y="391" type="curve"/>
      <point x="375" y="299" type="line"/>
      <point x="446" y="329"/>
      <point x="503" y="394"/>
      <point x="503" y="468" type="curve"/>
      <point x="503" y="575"/>
      <point x="385" y="678"/>
      <point x="250" y="678" type="curve"/>
      <point x="177" y="678"/>
      <point x="81" y="647"/>
      <point x="16" y="588" type="curve"/>
      <point x="109" y="449" type="line"/>
      <point x="171" y="501"/>
      <point x="255" y="550"/>
      <point x="321" y="563" type="curve"/>
      <point x="346" y="547"/>
      <point x="358" y="522"/>
      <point x="358" y="499" type="curve"/>
      <point x="358" y="451"/>
      <point x="311" y="406"/>
    </contour>
  </outline>
</glyph>
<glyph name="dvOOE" format="1">
  <advance width="1162"/>
  <unicode hex="0974"/>
  <outline>
    <contour>
      <point x="939" y="602" type="line"/>
      <point x="1020" y="561" type="line"/>
      <point x="1050" y="578" type="line"/>
      <point x="1050" y="835" type="line"/>
      <point x="939" y="835" type="line"/>
    </contour>
    <component base="dvAa"/>
  </outline>
</glyph>
<glyph name="dvAW" format="1">
  <advance width="1162"/>
  <unicode hex="0975"/>
  <outline>
    <component base="dvA"/>
    <component base="dvMatraAW" xOffset="859"/>
    <contour>
      <point x="1157" y="655" type="move" name="abvmBINDU"/>
    </contour>
  </outline>
</glyph>
<glyph name="dvUE" format="1">
  <advance width="859"/>
  <unicode hex="0976"/>
  <outline>
    <component base="dvA"/>
    <component base="dvMatraUE" xOffset="808"/>
    <contour>
      <point x="698" y="660" type="move" name="abvmBINDU"/>
    </contour>
    <contour>
      <point x="679" y="660" type="move" name="abvmCANDRABINDU"/>
    </contour>
  </outline>
</glyph>
<glyph name="dvYaHeavy" format="1">
  <advance width="658"/>
  <unicode hex="097A"/>
  <outline>
    <contour>
      <point x="190" y="401" type="line"/>
      <point x="434" y="188" type="line"/>
      <point x="519" y="221" type="line"/>
      <point x="280" y="429" type="line"/>
    </contour>
    <component base="dvYa"/>
    <contour>
      <point x="351" y="660" type="move" name="abvmBINDU"/>
    </contour>
    <contour>
      <point x="380" y="660" type="move" name="abvmCANDRABINDU"/>
    </contour>
    <contour>
      <point x="760" y="660" type="move" name="abvmCANDRABINDU2"/>
    </contour>
    <contour>
      <point x="493" y="473" type="move" name="abvmTOP"/>
    </contour>
    <contour>
      <point x="401" y="1" type="move" name="blwmBOTTOM"/>
    </contour>
  </outline>
</glyph>
<glyph name="lenis" format="1">
  <advance width="290"/>
  <unicode hex="1FBF"/>
  <outline>
    <contour>
      <point x="77" y="578" type="curve"/>
      <point x="112" y="531" type="line"/>
      <point x="189" y="565"/>
      <point x="240" y="634"/>
      <point x="240" y="698" type="curve"/>
      <point x="240" y="738"/>
      <point x="216" y="782"/>
      <point x="158" y="796" type="curve"/>
      <point x="119" y="780"/>
      <point x="90" y="744"/>
      <point x="84" y="699" type="curve"/>
      <point x="135" y="660" type="line"/>
      <point x="133" y="631"/>
      <point x="114" y="609"/>
    </contour>
    <contour>
      <point x="180" y="473" type="move" name="_top"/>
    </contour>
  </outline>
</glyph>
<glyph name="lenisgrave" format="1">
  <advance width="290"/>
  <unicode hex="1FCD"/>
  <outline>
    <contour>
      <point x="163" y="728" type="line"/>
      <point x="273" y="531" type="line"/>
      <point x="334" y="554" type="line"/>
      <point x="281" y="794" type="line"/>
      <point x="240" y="799"/>
      <point x="189" y="779"/>
      <point x="166" y="761" type="curve"/>
    </contour>
    <contour>
      <point x="-26" y="578" type="curve"/>
      <point x="10" y="531" type="line"/>
      <point x="87" y="565"/>
      <point x="138" y="634"/>
      <point x="138" y="698" type="curve"/>
      <point x="138" y="738"/>
      <point x="114" y="782"/>
      <point x="56" y="796" type="curve"/>
      <point x="17" y="780"/>
      <point x="-12" y="744"/>
      <point x="-19" y="699" type="curve"/>
      <point x="33" y="660" type="line"/>
      <point x="31" y="631"/>
      <point x="12" y="609"/>
    </contour>
    <contour>
      <point x="198" y="473" type="move" name="_top"/>
    </contour>
  </outline>
</glyph>
<glyph name="lenisacute" format="1">
  <advance width="290"/>
  <unicode hex="1FCE"/>
  <outline>
    <contour>
      <point x="150" y="554" type="line"/>
      <point x="211" y="531" type="line"/>
      <point x="322" y="728" type="line"/>
      <point x="319" y="761" type="line"/>
      <point x="295" y="779"/>
      <point x="244" y="799"/>
      <point x="203" y="794" type="curve"/>
    </contour>
    <contour>
      <point x="-26" y="578" type="curve"/>
      <point x="10" y="531" type="line"/>
      <point x="87" y="565"/>
      <point x="138" y="634"/>
      <point x="138" y="698" type="curve"/>
      <point x="138" y="738"/>
      <point x="114" y="782"/>
      <point x="56" y="796" type="curve"/>
      <point x="17" y="780"/>
      <point x="-12" y="744"/>
      <point x="-19" y="699" type="curve"/>
      <point x="33" y="660" type="line"/>
      <point x="31" y="631"/>
      <point x="12" y="609"/>
    </contour>
    <contour>
      <point x="164" y="473" type="move" name="_top"/>
    </contour>
  </outline>
</glyph>
<glyph name="lenistilde" format="1">
  <advance width="290"/>
  <unicode hex="1FCF"/>
  <outline>
    <component base="grTilde" xOffset="25" yOffset="231"/>
    <component base="lenis"/>
    <contour>
      <point x="191" y="473" type="move" name="_top"/>
    </contour>
  </outline>
</glyph>
<glyph name="aspergrave" format="1">
  <advance width="290"/>
  <unicode hex="1FDD"/>
  <outline>
    <contour>
      <point x="163" y="728" type="line"/>
      <point x="273" y="531" type="line"/>
      <point x="334" y="554" type="line"/>
      <point x="281" y="794" type="line"/>
      <point x="240" y="799"/>
      <point x="189" y="779"/>
      <point x="166" y="761" type="curve"/>
    </contour>
    <contour>
      <point x="108" y="531" type="curve"/>
      <point x="143" y="578" type="line"/>
      <point x="106" y="609"/>
      <point x="87" y="631"/>
      <point x="85" y="660" type="curve"/>
      <point x="136" y="699" type="line"/>
      <point x="130" y="744"/>
      <point x="101" y="780"/>
      <point x="62" y="796" type="curve"/>
      <point x="4" y="782"/>
      <point x="-20" y="738"/>
      <point x="-20" y="698" type="curve"/>
      <point x="-20" y="634"/>
      <point x="31" y="565"/>
    </contour>
    <contour>
      <point x="203" y="473" type="move" name="_top"/>
    </contour>
  </outline>
</glyph>
<glyph name="asperacute" format="1">
  <advance width="290"/>
  <unicode hex="1FDE"/>
  <outline>
    <contour>
      <point x="171" y="554" type="line"/>
      <point x="231" y="531" type="line"/>
      <point x="342" y="728" type="line"/>
      <point x="339" y="761" type="line"/>
      <point x="316" y="779"/>
      <point x="265" y="799"/>
      <point x="224" y="794" type="curve"/>
    </contour>
    <contour>
      <point x="109" y="531" type="curve"/>
      <point x="144" y="578" type="line"/>
      <point x="107" y="609"/>
      <point x="88" y="631"/>
      <point x="86" y="660" type="curve"/>
      <point x="137" y="699" type="line"/>
      <point x="130" y="744"/>
      <point x="102" y="780"/>
      <point x="63" y="796" type="curve"/>
      <point x="5" y="782"/>
      <point x="-19" y="738"/>
      <point x="-19" y="698" type="curve"/>
      <point x="-19" y="634"/>
      <point x="32" y="565"/>
    </contour>
    <contour>
      <point x="192" y="473" type="move" name="_top"/>
    </contour>
  </outline>
</glyph>
<glyph name="dieresisgrave" format="1">
  <advance width="290"/>
  <unicode hex="1FED"/>
  <outline>
    <contour>
      <point x="61" y="732" type="line"/>
      <point x="147" y="531" type="line"/>
      <point x="213" y="549" type="line"/>
      <point x="186" y="793" type="line"/>
      <point x="141" y="800"/>
      <point x="89" y="784"/>
      <point x="65" y="765" type="curve"/>
    </contour>
    <contour>
      <point x="-31" y="549" type="curve"/>
      <point x="10" y="570"/>
      <point x="36" y="601"/>
      <point x="50" y="644" type="curve"/>
      <point x="38" y="687"/>
      <point x="-1" y="721"/>
      <point x="-46" y="739" type="curve"/>
      <point x="-89" y="716"/>
      <point x="-122" y="680"/>
      <point x="-129" y="629" type="curve"/>
      <point x="-108" y="590"/>
      <point x="-77" y="564"/>
    </contour>
    <contour>
      <point x="339" y="549" type="curve"/>
      <point x="379" y="570"/>
      <point x="405" y="601"/>
      <point x="419" y="644" type="curve"/>
      <point x="407" y="687"/>
      <point x="368" y="721"/>
      <point x="323" y="739" type="curve"/>
      <point x="280" y="716"/>
      <point x="247" y="680"/>
      <point x="240" y="629" type="curve"/>
      <point x="261" y="590"/>
      <point x="292" y="564"/>
    </contour>
    <contour>
      <point x="174" y="473" type="move" name="_top"/>
    </contour>
  </outline>
</glyph>
<glyph name="emdash" format="1">
  <advance width="1025"/>
  <unicode hex="2014"/>
  <outline>
    <contour>
      <point x="33" y="293" type="curve"/>
      <point x="39" y="218" type="line"/>
      <point x="929" y="218" type="line"/>
      <point x="976" y="269" type="line"/>
      <point x="971" y="320" type="line"/>
      <point x="146" y="320" type="line"/>
      <point x="115" y="320"/>
      <point x="72" y="313"/>
    </contour>
  </outline>
</glyph>
<glyph name="ellipsis" format="1">
  <advance width="898"/>
  <unicode hex="2026"/>
  <outline>
    <contour>
      <point x="813" y="-20" type="curve"/>
      <point x="856" y="3"/>
      <point x="885" y="37"/>
      <point x="898" y="82" type="curve"/>
      <point x="886" y="127"/>
      <point x="846" y="162"/>
      <point x="798" y="183" type="curve"/>
      <point x="750" y="158"/>
      <point x="716" y="119"/>
      <point x="708" y="66" type="curve"/>
      <point x="730" y="24"/>
      <point x="765" y="-4"/>
    </contour>
    <contour>
      <point x="201" y="-20" type="curve"/>
      <point x="244" y="3"/>
      <point x="273" y="37"/>
      <point x="286" y="82" type="curve"/>
      <point x="274" y="127"/>
      <point x="234" y="162"/>
      <point x="186" y="183" type="curve"/>
      <point x="138" y="158"/>
      <point x="104" y="119"/>
      <point x="96" y="66" type="curve"/>
      <point x="118" y="24"/>
      <point x="153" y="-4"/>
    </contour>
    <contour>
      <point x="507" y="-20" type="curve"/>
      <point x="550" y="3"/>
      <point x="579" y="37"/>
      <point x="592" y="82" type="curve"/>
      <point x="580" y="127"/>
      <point x="540" y="162"/>
      <point x="492" y="183" type="curve"/>
      <point x="444" y="158"/>
      <point x="410" y="119"/>
      <point x="402" y="66" type="curve"/>
      <point x="424" y="24"/>
      <point x="459" y="-4"/>
    </contour>
  </outline>
</glyph>
<glyph name="guilsinglleft" format="1">
  <advance width="363"/>
  <unicode hex="2039"/>
  <outline>
    <contour>
      <point x="54" y="214" type="line"/>
      <point x="221" y="33" type="line"/>
      <point x="309" y="95" type="line"/>
      <point x="211" y="253" type="line"/>
      <point x="303" y="420" type="line"/>
      <point x="220" y="476" type="line"/>
      <point x="54" y="293" type="line"/>
    </contour>
  </outline>
</glyph>
<glyph name="trademark" format="1">
  <advance width="890"/>
  <unicode hex="2122"/>
  <outline>
    <contour>
      <point x="466" y="715" type="line"/>
      <point x="575" y="446" type="line"/>
      <point x="649" y="456" type="line"/>
      <point x="650" y="518" type="line"/>
      <point x="562" y="735" type="line"/>
    </contour>
    <contour>
      <point x="85" y="462" type="curve"/>
      <point x="88" y="448" type="line"/>
      <point x="139" y="448" type="line"/>
      <point x="138" y="492" type="line"/>
      <point x="120" y="483"/>
      <point x="98" y="473"/>
    </contour>
    <contour>
      <point x="226" y="485" type="line"/>
      <point x="224" y="448" type="line"/>
      <point x="290" y="448" type="line"/>
      <point x="291" y="473" type="line"/>
    </contour>
    <contour>
      <point x="19" y="608" type="curve"/>
      <point x="80" y="608" type="line"/>
      <point x="100" y="730" type="line"/>
      <point x="8" y="737" type="line"/>
      <point x="5" y="715"/>
      <point x="12" y="629"/>
    </contour>
    <contour>
      <point x="133" y="728" type="line"/>
      <point x="133" y="448" type="line"/>
      <point x="244" y="448" type="line"/>
      <point x="244" y="728" type="line"/>
    </contour>
    <contour>
      <point x="383" y="463" type="curve"/>
      <point x="386" y="449" type="line"/>
      <point x="431" y="449" type="line"/>
      <point x="431" y="493" type="line"/>
      <point x="412" y="483"/>
      <point x="396" y="474"/>
    </contour>
    <contour>
      <point x="8" y="737" type="curve"/>
      <point x="34" y="682" type="line"/>
      <point x="188" y="692" type="line"/>
      <point x="341" y="682" type="line"/>
      <point x="368" y="737" type="line"/>
      <point x="206" y="734"/>
      <point x="172" y="734"/>
    </contour>
    <contour>
      <point x="473" y="486" type="line"/>
      <point x="472" y="449" type="line"/>
      <point x="539" y="449" type="line"/>
      <point x="539" y="474" type="line" smooth="yes"/>
    </contour>
    <contour>
      <point x="274" y="730" type="line"/>
      <point x="295" y="608" type="line"/>
      <point x="355" y="608" type="line"/>
      <point x="363" y="629"/>
      <point x="370" y="715"/>
      <point x="368" y="737" type="curve"/>
    </contour>
    <contour>
      <point x="435" y="735" type="line"/>
      <point x="423" y="449" type="line"/>
      <point x="494" y="449" type="line"/>
      <point x="499" y="592" type="line"/>
      <point x="491" y="680" type="line"/>
      <point x="562" y="735" type="line"/>
    </contour>
    <contour>
      <point x="398" y="710" type="line"/>
      <point x="463" y="698" type="line"/>
      <point x="465" y="735" type="line"/>
      <point x="399" y="735" type="line"/>
    </contour>
    <contour>
      <point x="686" y="463" type="curve"/>
      <point x="689" y="449" type="line"/>
      <point x="734" y="449" type="line"/>
      <point x="734" y="493" type="line"/>
      <point x="715" y="483"/>
      <point x="699" y="474"/>
    </contour>
    <contour>
      <point x="604" y="465" type="line"/>
      <point x="649" y="456" type="line"/>
      <point x="755" y="719" type="line"/>
      <point x="712" y="735" type="line"/>
    </contour>
    <contour>
      <point x="800" y="486" type="line"/>
      <point x="799" y="449" type="line"/>
      <point x="866" y="449" type="line"/>
      <point x="866" y="474" type="line"/>
    </contour>
    <contour>
      <point x="720" y="589" type="line"/>
      <point x="728" y="449" type="line"/>
      <point x="827" y="449" type="line"/>
      <point x="815" y="735" type="line"/>
      <point x="712" y="735" type="line"/>
      <point x="727" y="678" type="line"/>
    </contour>
    <contour>
      <point x="805" y="735" type="line"/>
      <point x="805" y="691" type="line"/>
      <point x="824" y="701"/>
      <point x="840" y="710"/>
      <point x="853" y="721" type="curve"/>
      <point x="850" y="735" type="line"/>
    </contour>
    <contour>
      <point x="217" y="269" type="move" name="bottom"/>
    </contour>
    <contour>
      <point x="204" y="412" type="move" name="center"/>
    </contour>
    <contour>
      <point x="217" y="555" type="move" name="top"/>
    </contour>
  </outline>
</glyph>
<glyph name="increment" format="1">
  <advance width="725"/>
  <unicode hex="2206"/>
  <outline>
    <contour>
      <point x="271" y="634" type="line"/>
      <point x="525" y="0" type="line"/>
      <point x="685" y="71" type="line"/>
      <point x="427" y="674" type="line"/>
    </contour>
    <contour>
      <point x="40" y="35" type="line"/>
      <point x="46" y="0" type="line"/>
      <point x="650" y="0" type="line"/>
      <point x="691" y="33" type="line"/>
      <point x="687" y="71" type="line"/>
      <point x="95" y="71" type="line"/>
    </contour>
    <contour>
      <point x="40" y="35" type="line"/>
      <point x="151" y="23" type="line"/>
      <point x="365" y="609" type="line"/>
      <point x="272" y="634" type="line"/>
    </contour>
  </outline>
</glyph>
<glyph name="lozenge" format="1">
  <advance width="554"/>
  <unicode hex="25CA"/>
  <outline>
    <contour>
      <point x="273" y="595" type="line"/>
      <point x="416" y="322" type="line"/>
      <point x="516" y="367" type="line"/>
      <point x="314" y="743" type="line"/>
      <point x="220" y="735" type="line"/>
      <point x="38" y="368" type="line"/>
      <point x="142" y="325" type="line"/>
      <point x="267" y="594" type="line"/>
    </contour>
    <contour>
      <point x="38" y="368" type="line"/>
      <point x="240" y="-8" type="line"/>
      <point x="334" y="0" type="line"/>
      <point x="516" y="367" type="line"/>
      <point x="412" y="410" type="line"/>
      <point x="288" y="141" type="line"/>
      <point x="282" y="140" type="line"/>
      <point x="138" y="413" type="line"/>
    </contour>
  </outline>
</glyph>
<glyph name="asper.case" format="1">
  <advance width="290"/>
  <outline>
    <contour>
      <point x="163" y="407" type="curve"/>
      <point x="198" y="455" type="line"/>
      <point x="161" y="485"/>
      <point x="141" y="508"/>
      <point x="140" y="536" type="curve"/>
      <point x="191" y="575" type="line"/>
      <point x="184" y="620"/>
      <point x="155" y="656"/>
      <point x="117" y="672" type="curve"/>
      <point x="59" y="658"/>
      <point x="35" y="614"/>
      <point x="35" y="574" type="curve"/>
      <point x="35" y="510"/>
      <point x="86" y="441"/>
    </contour>
    <contour>
      <point x="194" y="343" type="move" name="_left"/>
    </contour>
  </outline>
</glyph>
<glyph name="asperacute.case" format="1">
  <advance width="290"/>
  <outline>
    <contour>
      <point x="150" y="431" type="line"/>
      <point x="210" y="407" type="line"/>
      <point x="321" y="604" type="line"/>
      <point x="318" y="637" type="line"/>
      <point x="295" y="656"/>
      <point x="243" y="676"/>
      <point x="202" y="670" type="curve"/>
    </contour>
    <contour>
      <point x="88" y="407" type="curve"/>
      <point x="123" y="455" type="line"/>
      <point x="86" y="485"/>
      <point x="66" y="508"/>
      <point x="65" y="536" type="curve"/>
      <point x="116" y="575" type="line"/>
      <point x="109" y="620"/>
      <point x="80" y="656"/>
      <point x="42" y="672" type="curve"/>
      <point x="-16" y="658"/>
      <point x="-40" y="614"/>
      <point x="-40" y="574" type="curve"/>
      <point x="-40" y="510"/>
      <point x="11" y="441"/>
    </contour>
    <contour>
      <point x="305" y="343" type="move" name="_left"/>
    </contour>
  </outline>
</glyph>
<glyph name="aspergrave.case" format="1">
  <advance width="466"/>
  <outline>
    <contour>
      <point x="141" y="604" type="line"/>
      <point x="251" y="407" type="line"/>
      <point x="312" y="431" type="line"/>
      <point x="259" y="670" type="line"/>
      <point x="218" y="676"/>
      <point x="167" y="656"/>
      <point x="144" y="637" type="curve"/>
    </contour>
    <contour>
      <point x="86" y="407" type="curve"/>
      <point x="121" y="455" type="line"/>
      <point x="84" y="485"/>
      <point x="65" y="508"/>
      <point x="63" y="536" type="curve"/>
      <point x="114" y="575" type="line"/>
      <point x="108" y="620"/>
      <point x="79" y="656"/>
      <point x="40" y="672" type="curve"/>
      <point x="-18" y="658"/>
      <point x="-42" y="614"/>
      <point x="-42" y="574" type="curve"/>
      <point x="-42" y="510"/>
      <point x="9" y="441"/>
    </contour>
    <contour>
      <point x="311" y="343" type="move" name="_left"/>
    </contour>
  </outline>
</glyph>
<glyph name="circumflexcomb.case" format="1">
  <advance width="0"/>
  <outline>
    <contour>
      <point x="-213" y="656" type="line"/>
      <point x="-151" y="599" type="line"/>
      <point x="0" y="713" type="line"/>
      <point x="157" y="599" type="line"/>
      <point x="216" y="656" type="line"/>
      <point x="61" y="821" type="line"/>
      <point x="-59" y="821" type="line"/>
    </contour>
    <contour>
      <point x="0" y="545" type="move" name="_top"/>
    </contour>
  </outline>
</glyph>
<glyph name="dvChRYa" format="1">
  <advance width="1401"/>
  <outline>
    <component base="dvChYa"/>
    <component base="dvRakar" xOffset="394" yOffset="17"/>
    <contour>
      <point x="1104" y="660" type="move" name="abvmBINDU"/>
    </contour>
    <contour>
      <point x="1133" y="660" type="move" name="abvmCANDRABINDU"/>
    </contour>
    <contour>
      <point x="1513" y="660" type="move" name="abvmCANDRABINDU2"/>
    </contour>
    <contour>
      <point x="1245" y="473" type="move" name="abvmTOP"/>
    </contour>
    <contour>
      <point x="1154" y="-41" type="move" name="blwmBOTTOM"/>
    </contour>
  </outline>
</glyph>
<glyph name="dvDVYa" format="1">
  <advance width="1228"/>
  <outline>
    <component base="dvDVa"/>
    <component base="dvYa.post" xOffset="548"/>
    <contour>
      <point x="922" y="660" type="move" name="abvmBINDU"/>
    </contour>
    <contour>
      <point x="951" y="660" type="move" name="abvmCANDRABINDU"/>
    </contour>
    <contour>
      <point x="1330" y="660" type="move" name="abvmCANDRABINDU2"/>
    </contour>
    <contour>
      <point x="1063" y="473" type="move" name="abvmTOP"/>
    </contour>
    <contour>
      <point x="972" y="-41" type="move" name="blwmBOTTOM"/>
    </contour>
  </outline>
</glyph>
<glyph name="dvFive.ss05" format="1">
  <advance width="566"/>
  <outline>
    <contour>
      <point x="299" y="170" type="curve"/>
      <point x="375" y="170"/>
      <point x="441" y="224"/>
      <point x="459" y="313" type="curve"/>
      <point x="369" y="410" type="line"/>
      <point x="355" y="334"/>
      <point x="276" y="275"/>
      <point x="190" y="314" type="curve"/>
      <point x="176" y="377"/>
      <point x="201" y="495"/>
      <point x="243" y="614" type="curve"/>
      <point x="94" y="667" type="line"/>
      <point x="51" y="574"/>
      <point x="39" y="479"/>
      <point x="39" y="432" type="curve"/>
      <point x="39" y="261"/>
      <point x="201" y="170"/>
    </contour>
    <contour>
      <point x="94" y="131" type="line"/>
      <point x="82" y="-24" type="line"/>
      <point x="147" y="-47"/>
      <point x="254" y="-25"/>
      <point x="281" y="4" type="curve"/>
      <point x="271" y="73" type="line"/>
      <point x="141" y="152" type="line"/>
    </contour>
    <contour>
      <point x="212" y="2" type="line"/>
      <point x="440" y="-115" type="line"/>
      <point x="506" y="-63" type="line"/>
      <point x="507" y="-22" type="line"/>
      <point x="269" y="77" type="line"/>
    </contour>
    <contour>
      <point x="199" y="100" type="curve"/>
      <point x="309" y="29" type="line"/>
      <point x="446" y="140"/>
      <point x="510" y="357"/>
      <point x="500" y="585" type="curve"/>
      <point x="357" y="623" type="line"/>
      <point x="356" y="443"/>
      <point x="332" y="211"/>
    </contour>
  </outline>
</glyph>
<glyph name="dvHa_dvMatraUu" format="1">
  <advance width="593"/>
  <outline>
    <contour>
      <point x="310" y="-155" type="curve"/>
      <point x="374" y="-67" type="line"/>
      <point x="288" y="-37"/>
      <point x="224" y="5"/>
      <point x="224" y="73" type="curve"/>
      <point x="224" y="140"/>
      <point x="287" y="180"/>
      <point x="357" y="180" type="curve"/>
      <point x="383" y="180"/>
      <point x="408" y="174"/>
      <point x="431" y="163" type="curve"/>
      <point x="423" y="131"/>
      <point x="382" y="84"/>
      <point x="336" y="50" type="curve"/>
      <point x="460" y="-43" type="line"/>
      <point x="519" y="-7"/>
      <point x="553" y="45"/>
      <point x="553" y="107" type="curve"/>
      <point x="553" y="225"/>
      <point x="429" y="304"/>
      <point x="296" y="304" type="curve"/>
      <point x="170" y="304"/>
      <point x="61" y="233"/>
      <point x="61" y="111" type="curve"/>
      <point x="61" y="-11"/>
      <point x="171" y="-100"/>
    </contour>
    <contour>
      <point x="204" y="187" type="curve"/>
      <point x="244" y="230" type="line"/>
      <point x="200" y="255"/>
      <point x="177" y="280"/>
      <point x="177" y="305" type="curve"/>
      <point x="177" y="331"/>
      <point x="199" y="350"/>
      <point x="246" y="350" type="curve"/>
      <point x="513" y="350" type="line"/>
      <point x="422" y="486" type="line"/>
      <point x="210" y="486" type="line" smooth="yes"/>
      <point x="93" y="486"/>
      <point x="44" y="427"/>
      <point x="44" y="368" type="curve"/>
      <point x="44" y="303"/>
      <point x="104" y="230"/>
    </contour>
    <contour>
      <point x="-57" y="613" type="line"/>
      <point x="0" y="538" type="line"/>
      <point x="628" y="538" type="line"/>
      <point x="649" y="580" type="line"/>
      <point x="593" y="655" type="line"/>
      <point x="-36" y="655" type="line"/>
    </contour>
    <contour>
      <point x="369" y="407" type="line"/>
      <point x="513" y="350" type="line"/>
      <point x="513" y="490" type="line"/>
      <point x="409" y="564" type="line"/>
      <point x="369" y="590" type="line"/>
    </contour>
    <component base="dvMatraUu" xOffset="525" yOffset="-82"/>
    <contour>
      <point x="426" y="660" type="move" name="abvmBINDU"/>
    </contour>
    <contour>
      <point x="393" y="660" type="move" name="abvmCANDRABINDU"/>
    </contour>
    <contour>
      <point x="688" y="660" type="move" name="abvmCANDRABINDU2"/>
    </contour>
    <contour>
      <point x="441" y="473" type="move" name="abvmTOP"/>
    </contour>
  </outline>
</glyph>
<glyph name="dvHalant.small" format="1">
  <advance width="0"/>
  <outline>
    <contour>
      <point x="-122" y="-162" type="line"/>
      <point x="35" y="-299" type="line"/>
      <point x="93" y="-239" type="line"/>
      <point x="-29" y="-127" type="line" smooth="yes"/>
      <point x="-81" y="-80"/>
      <point x="-120" y="-60"/>
      <point x="-166" y="-60" type="curve"/>
      <point x="-211" y="-60"/>
      <point x="-257" y="-78"/>
      <point x="-302" y="-124" type="curve"/>
      <point x="-210" y="-211" type="line"/>
    </contour>
    <contour>
      <point x="-185" y="-40" type="move" name="_blwmBOTTOM"/>
    </contour>
  </outline>
</glyph>
<glyph name="dvKSPRa" format="1">
  <advance width="1700"/>
  <outline>
    <component base="dvK"/>
    <component base="dvS" xOffset="616"/>
    <component base="dvPRa" xOffset="1054"/>
    <contour>
      <point x="1393" y="660" type="move" name="abvmBINDU"/>
    </contour>
    <contour>
      <point x="1405" y="660" type="move" name="abvmCANDRABINDU"/>
    </contour>
    <contour>
      <point x="1802" y="660" type="move" name="abvmCANDRABINDU2"/>
    </contour>
    <contour>
      <point x="1535" y="473" type="move" name="abvmTOP"/>
    </contour>
    <contour>
      <point x="1443" y="-34" type="move" name="blwmBOTTOM"/>
    </contour>
  </outline>
</glyph>
<glyph name="dvMatraAi_dvAnusvara" format="1">
  <advance width="0"/>
  <outline>
    <contour>
      <point x="-26" y="701" type="curve"/>
      <point x="4" y="722"/>
      <point x="39" y="765"/>
      <point x="53" y="802" type="curve"/>
      <point x="33" y="827"/>
      <point x="-10" y="866"/>
      <point x="-46" y="880" type="curve"/>
      <point x="-77" y="862"/>
      <point x="-109" y="820"/>
      <point x="-129" y="780" type="curve"/>
      <point x="-107" y="750"/>
      <point x="-59" y="713"/>
    </contour>
    <component base="dvMatraAi"/>
    <contour>
      <point x="-163" y="473" type="move" name="_abvmTOP"/>
    </contour>
  </outline>
</glyph>
<glyph name="dvMatraAu_dvReph_dvAnusvara" format="1">
  <advance width="303"/>
  <outline>
    <component base="dvMatraAa"/>
    <component base="dvMatraAi_dvReph_dvAnusvara" xOffset="304"/>
    <contour>
      <point x="301" y="597" type="move" name="abvmBINDU"/>
    </contour>
  </outline>
</glyph>
<glyph name="dvMatraE_dvAnusvara" format="1">
  <advance width="0"/>
  <outline>
    <component base="dvMatraE"/>
    <component base="dvAnusvara" xOffset="-58" yOffset="-10"/>
    <contour>
      <point x="-163" y="473" type="move" name="_abvmTOP"/>
    </contour>
  </outline>
</glyph>
<glyph name="dvMatraE_dvReph_dvAnusvara" format="1">
  <advance width="0"/>
  <outline>
    <contour>
      <point x="-40" y="678" type="curve"/>
      <point x="-14" y="695"/>
      <point x="15" y="732"/>
      <point x="27" y="762" type="curve"/>
      <point x="10" y="784"/>
      <point x="-26" y="816"/>
      <point x="-57" y="828" type="curve"/>
      <point x="-85" y="813"/>
      <point x="-111" y="777"/>
      <point x="-127" y="744" type="curve"/>
      <point x="-108" y="719"/>
      <point x="-67" y="688"/>
    </contour>
    <component base="dvMatraE_dvReph"/>
    <contour>
      <point x="-163" y="473" type="move" name="_abvmTOP"/>
    </contour>
  </outline>
</glyph>
<glyph name="dvMatraI.10" format="1">
  <advance width="303"/>
  <outline>
    <contour>
      <point x="94" y="638" type="curve"/>
      <point x="186" y="638" type="line"/>
      <point x="170" y="665"/>
      <point x="164" y="687"/>
      <point x="164" y="708" type="curve"/>
      <point x="164" y="813"/>
      <point x="297" y="876"/>
      <point x="507" y="876" type="curve"/>
      <point x="742" y="876"/>
      <point x="1048" y="795"/>
      <point x="1363" y="677" type="curve"/>
      <point x="1407" y="748" type="line"/>
      <point x="958" y="944"/>
      <point x="640" y="1012"/>
      <point x="424" y="1012" type="curve"/>
      <point x="157" y="1012"/>
      <point x="23" y="919"/>
      <point x="23" y="791" type="curve"/>
      <point x="23" y="741"/>
      <point x="43" y="691"/>
    </contour>
    <contour>
      <point x="75" y="19" type="line"/>
      <point x="189" y="-43" type="line"/>
      <point x="235" y="-21" type="line"/>
      <point x="235" y="490" type="line"/>
      <point x="131" y="564" type="line"/>
      <point x="75" y="590" type="line"/>
    </contour>
    <contour>
      <point x="-57" y="613" type="line"/>
      <point x="0" y="538" type="line"/>
      <point x="338" y="538" type="line"/>
      <point x="359" y="580" type="line"/>
      <point x="303" y="655" type="line"/>
      <point x="-36" y="655" type="line"/>
    </contour>
    <contour>
      <point x="1407" y="748" type="move" name="abvmTOP"/>
    </contour>
  </outline>
</glyph>
<glyph name="dvMatraI.3" format="1">
  <advance width="303"/>
  <outline>
    <contour>
      <point x="93" y="638" type="curve"/>
      <point x="185" y="638" type="line"/>
      <point x="162" y="671"/>
      <point x="154" y="699"/>
      <point x="154" y="726" type="curve"/>
      <point x="154" y="805"/>
      <point x="231" y="859"/>
      <point x="347" y="859" type="curve"/>
      <point x="480" y="859"/>
      <point x="627" y="784"/>
      <point x="796" y="673" type="curve"/>
      <point x="850" y="736" type="line"/>
      <point x="602" y="931"/>
      <point x="430" y="1001"/>
      <point x="285" y="1001" type="curve"/>
      <point x="121" y="1001"/>
      <point x="14" y="920"/>
      <point x="14" y="801" type="curve"/>
      <point x="14" y="741"/>
      <point x="40" y="687"/>
    </contour>
    <contour>
      <point x="75" y="19" type="line"/>
      <point x="189" y="-43" type="line"/>
      <point x="235" y="-21" type="line"/>
      <point x="235" y="490" type="line"/>
      <point x="131" y="564" type="line"/>
      <point x="75" y="590" type="line"/>
    </contour>
    <contour>
      <point x="-57" y="613" type="line"/>
      <point x="0" y="538" type="line"/>
      <point x="338" y="538" type="line"/>
      <point x="359" y="580" type="line"/>
      <point x="303" y="655" type="line"/>
      <point x="-36" y="655" type="line"/>
    </contour>
    <contour>
      <point x="851" y="736" type="move" name="abvmTOP"/>
    </contour>
  </outline>
</glyph>
<glyph name="dvMatraO_dvReph" format="1">
  <advance width="303"/>
  <outline>
    <component base="dvMatraAa"/>
    <component base="dvMatraE_dvReph" xOffset="304"/>
    <contour>
      <point x="258" y="597" type="move" name="abvmBINDU"/>
    </contour>
  </outline>
</glyph>
<glyph name="dvNMa" format="1">
  <advance width="1035"/>
  <outline>
    <contour>
      <point x="430" y="207" type="curve"/>
      <point x="479" y="282" type="line"/>
      <point x="425" y="368"/>
      <point x="386" y="387"/>
      <point x="268" y="387" type="curve"/>
      <point x="63" y="387" type="line"/>
      <point x="63" y="338" type="line"/>
      <point x="183" y="243" type="line"/>
      <point x="308" y="243" type="line" smooth="yes"/>
      <point x="367" y="243"/>
      <point x="388" y="238"/>
    </contour>
    <contour>
      <point x="172" y="108" type="curve"/>
      <point x="238" y="140" type="line"/>
      <point x="238" y="344" type="line"/>
      <point x="171" y="387" type="line"/>
      <point x="45" y="387" type="line"/>
      <point x="8" y="332" type="line"/>
      <point x="24" y="252"/>
      <point x="95" y="150"/>
    </contour>
    <contour>
      <point x="-57" y="613" type="line"/>
      <point x="0" y="538" type="line"/>
      <point x="367" y="538" type="line"/>
      <point x="388" y="580" type="line"/>
      <point x="332" y="655" type="line"/>
      <point x="-36" y="655" type="line"/>
    </contour>
    <component base="dvMa" xOffset="351"/>
    <contour>
      <point x="719" y="660" type="move" name="abvmBINDU"/>
    </contour>
    <contour>
      <point x="737" y="660" type="move" name="abvmCANDRABINDU"/>
    </contour>
    <contour>
      <point x="1137" y="660" type="move" name="abvmCANDRABINDU2"/>
    </contour>
    <contour>
      <point x="870" y="473" type="move" name="abvmTOP"/>
    </contour>
    <contour>
      <point x="779" y="1" type="move" name="blwmBOTTOM"/>
    </contour>
  </outline>
</glyph>
<glyph name="dvNSha" format="1">
  <advance width="1144"/>
  <outline>
    <contour>
      <point x="172" y="175" type="curve"/>
      <point x="238" y="207" type="line"/>
      <point x="238" y="411" type="line"/>
      <point x="171" y="454" type="line"/>
      <point x="45" y="454" type="line"/>
      <point x="8" y="399" type="line"/>
      <point x="24" y="320"/>
      <point x="95" y="218"/>
    </contour>
    <contour>
      <point x="121" y="454" type="line"/>
      <point x="152" y="318" type="line"/>
      <point x="512" y="318" type="line"/>
      <point x="529" y="357" type="line"/>
      <point x="474" y="454" type="line"/>
    </contour>
    <contour>
      <point x="-57" y="613" type="line"/>
      <point x="0" y="538" type="line"/>
      <point x="367" y="538" type="line"/>
      <point x="388" y="580" type="line"/>
      <point x="332" y="655" type="line"/>
      <point x="-36" y="655" type="line"/>
    </contour>
    <component base="dvSha" xOffset="316"/>
    <contour>
      <point x="830" y="660" type="move" name="abvmBINDU"/>
    </contour>
    <contour>
      <point x="820" y="660" type="move" name="abvmCANDRABINDU"/>
    </contour>
    <contour>
      <point x="1247" y="660" type="move" name="abvmCANDRABINDU2"/>
    </contour>
    <contour>
      <point x="979" y="473" type="move" name="abvmTOP"/>
    </contour>
    <contour>
      <point x="888" y="-82" type="move" name="blwmBOTTOM"/>
    </contour>
  </outline>
</glyph>
<glyph name="dvNTRa" format="1">
  <advance width="966"/>
  <outline>
    <contour>
      <point x="172" y="161" type="curve"/>
      <point x="238" y="192" type="line"/>
      <point x="238" y="397" type="line"/>
      <point x="171" y="439" type="line"/>
      <point x="45" y="439" type="line"/>
      <point x="8" y="384" type="line"/>
      <point x="24" y="305"/>
      <point x="95" y="203"/>
    </contour>
    <contour>
      <point x="121" y="439" type="line"/>
      <point x="152" y="303" type="line"/>
      <point x="435" y="303" type="line"/>
      <point x="459" y="342" type="line"/>
      <point x="404" y="439" type="line"/>
    </contour>
    <contour>
      <point x="-57" y="613" type="line"/>
      <point x="0" y="538" type="line"/>
      <point x="367" y="538" type="line"/>
      <point x="388" y="580" type="line"/>
      <point x="332" y="655" type="line"/>
      <point x="-36" y="655" type="line"/>
    </contour>
    <component base="dvTRa" xOffset="326"/>
    <contour>
      <point x="804" y="660" type="move" name="abvmBINDU"/>
    </contour>
    <contour>
      <point x="786" y="660" type="move" name="abvmCANDRABINDU"/>
    </contour>
    <contour>
      <point x="1068" y="660" type="move" name="abvmCANDRABINDU2"/>
    </contour>
    <contour>
      <point x="801" y="473" type="move" name="abvmTOP"/>
    </contour>
    <contour>
      <point x="709" y="1" type="move" name="blwmBOTTOM"/>
    </contour>
  </outline>
</glyph>
<glyph name="dvNTYa" format="1">
  <advance width="1315"/>
  <outline>
    <component base="dvN"/>
    <component base="dvTYa" xOffset="312"/>
    <contour>
      <point x="1009" y="660" type="move" name="abvmBINDU"/>
    </contour>
    <contour>
      <point x="1037" y="660" type="move" name="abvmCANDRABINDU"/>
    </contour>
    <contour>
      <point x="1417" y="660" type="move" name="abvmCANDRABINDU2"/>
    </contour>
    <contour>
      <point x="1150" y="473" type="move" name="abvmTOP"/>
    </contour>
    <contour>
      <point x="1059" y="1" type="move" name="blwmBOTTOM"/>
    </contour>
  </outline>
</glyph>
<glyph name="dvNThVa" format="1">
  <advance width="1381"/>
  <outline>
    <component base="dvN"/>
    <component base="dvTh" xOffset="323"/>
    <component base="dvVa" xOffset="741"/>
    <contour>
      <point x="1219" y="660" type="move" name="abvmBINDU"/>
    </contour>
    <contour>
      <point x="1201" y="660" type="move" name="abvmCANDRABINDU"/>
    </contour>
    <contour>
      <point x="1483" y="660" type="move" name="abvmCANDRABINDU2"/>
    </contour>
    <contour>
      <point x="1216" y="473" type="move" name="abvmTOP"/>
    </contour>
    <contour>
      <point x="1124" y="1" type="move" name="blwmBOTTOM"/>
    </contour>
  </outline>
</glyph>
<glyph name="dvRakar_dvMatraU" format="1">
  <advance width="0"/>
  <outline>
    <component base="dvRakar.small"/>
    <component base="dvMatraU.small" xOffset="290" yOffset="-254"/>
    <contour>
      <point x="0" y="0" type="move" name="_blwmBOTTOM"/>
    </contour>
  </outline>
</glyph>
<glyph name="dvSMa" format="1">
  <advance width="1148"/>
  <outline>
    <contour>
      <point x="568" y="187" type="curve"/>
      <point x="617" y="250" type="line"/>
      <point x="563" y="335"/>
      <point x="523" y="355"/>
      <point x="405" y="355" type="curve"/>
      <point x="203" y="355" type="line"/>
      <point x="208" y="223" type="line"/>
      <point x="445" y="223" type="line" smooth="yes"/>
      <point x="504" y="223"/>
      <point x="526" y="217"/>
    </contour>
    <component base="dvRa" xOffset="-8"/>
    <component base="dvMa" xOffset="464"/>
    <contour>
      <point x="832" y="660" type="move" name="abvmBINDU"/>
    </contour>
    <contour>
      <point x="850" y="660" type="move" name="abvmCANDRABINDU"/>
    </contour>
    <contour>
      <point x="1251" y="660" type="move" name="abvmCANDRABINDU2"/>
    </contour>
    <contour>
      <point x="983" y="473" type="move" name="abvmTOP"/>
    </contour>
    <contour>
      <point x="892" y="1" type="move" name="blwmBOTTOM"/>
    </contour>
  </outline>
</glyph>
<glyph name="dvSsMYa" format="1">
  <advance width="1366"/>
  <outline>
    <component base="dvSs"/>
    <component base="dvM" xOffset="337"/>
    <component base="dvYa" xOffset="709"/>
    <contour>
      <point x="1060" y="660" type="move" name="abvmBINDU"/>
    </contour>
    <contour>
      <point x="1089" y="660" type="move" name="abvmCANDRABINDU"/>
    </contour>
    <contour>
      <point x="1469" y="660" type="move" name="abvmCANDRABINDU2"/>
    </contour>
    <contour>
      <point x="1201" y="473" type="move" name="abvmTOP"/>
    </contour>
    <contour>
      <point x="1110" y="1" type="move" name="blwmBOTTOM"/>
    </contour>
  </outline>
</glyph>
<glyph name="dvTtTtYa" format="1">
  <advance width="1207"/>
  <outline>
    <component base="dvTtTta"/>
    <component base="dvYa.post" xOffset="527"/>
    <contour>
      <point x="899" y="660" type="move" name="abvmBINDU"/>
    </contour>
    <contour>
      <point x="927" y="660" type="move" name="abvmCANDRABINDU"/>
    </contour>
    <contour>
      <point x="1307" y="660" type="move" name="abvmCANDRABINDU2"/>
    </contour>
    <contour>
      <point x="1040" y="473" type="move" name="abvmTOP"/>
    </contour>
    <contour>
      <point x="951" y="-41" type="move" name="blwmBOTTOM"/>
    </contour>
  </outline>
</glyph>
<glyph name="dvTthYa" format="1">
  <advance width="1242"/>
  <outline>
    <component base="dvTtha"/>
    <component base="dvYa.post" xOffset="562"/>
    <contour>
      <point x="936" y="660" type="move" name="abvmBINDU"/>
    </contour>
    <contour>
      <point x="965" y="660" type="move" name="abvmCANDRABINDU"/>
    </contour>
    <contour>
      <point x="1345" y="660" type="move" name="abvmCANDRABINDU2"/>
    </contour>
    <contour>
      <point x="1077" y="473" type="move" name="abvmTOP"/>
    </contour>
    <contour>
      <point x="986" y="-41" type="move" name="blwmBOTTOM"/>
    </contour>
  </outline>
</glyph>
<glyph name="iotaadscript.case" format="1">
  <advance width="265"/>
  <outline>
    <contour>
      <point x="136" y="-223" type="curve"/>
      <point x="171" y="-223"/>
      <point x="206" y="-194"/>
      <point x="222" y="-158" type="curve"/>
      <point x="205" y="-127" type="line"/>
      <point x="113" y="-148" type="line"/>
      <point x="129" y="-170" type="line"/>
      <point x="194" y="-59" type="line"/>
      <point x="175" y="-31" type="line"/>
      <point x="116" y="-31"/>
      <point x="76" y="-36"/>
      <point x="46" y="-51" type="curve"/>
      <point x="52" y="-116" type="line" smooth="yes"/>
      <point x="60" y="-182"/>
      <point x="90" y="-223"/>
    </contour>
    <contour>
      <point x="112" y="0" type="move" name="_bottom"/>
    </contour>
  </outline>
</glyph>
<glyph name="lenis.case" format="1">
  <advance width="290"/>
  <outline>
    <contour>
      <point x="-1" y="455" type="curve"/>
      <point x="34" y="407" type="line"/>
      <point x="111" y="441"/>
      <point x="162" y="510"/>
      <point x="162" y="574" type="curve"/>
      <point x="162" y="614"/>
      <point x="138" y="658"/>
      <point x="80" y="672" type="curve"/>
      <point x="42" y="656"/>
      <point x="13" y="620"/>
      <point x="6" y="575" type="curve"/>
      <point x="57" y="536" type="line"/>
      <point x="56" y="508"/>
      <point x="36" y="485"/>
    </contour>
    <contour>
      <point x="158" y="343" type="move" name="_left"/>
    </contour>
  </outline>
</glyph>
<glyph name="lenisgrave.case" format="1">
  <advance width="290"/>
  <outline>
    <contour>
      <point x="63" y="604" type="line"/>
      <point x="173" y="407" type="line"/>
      <point x="234" y="431" type="line"/>
      <point x="181" y="670" type="line"/>
      <point x="140" y="676"/>
      <point x="89" y="656"/>
      <point x="66" y="637" type="curve"/>
    </contour>
    <contour>
      <point x="-126" y="455" type="curve"/>
      <point x="-91" y="407" type="line"/>
      <point x="-14" y="441"/>
      <point x="38" y="510"/>
      <point x="38" y="574" type="curve"/>
      <point x="38" y="614"/>
      <point x="14" y="658"/>
      <point x="-44" y="672" type="curve"/>
      <point x="-83" y="656"/>
      <point x="-112" y="620"/>
      <point x="-119" y="575" type="curve"/>
      <point x="-67" y="536" type="line"/>
      <point x="-69" y="508"/>
      <point x="-89" y="485"/>
    </contour>
    <contour>
      <point x="233" y="343" type="move" name="_left"/>
    </contour>
  </outline>
</glyph>
<glyph name="macroncomb.case" format="1">
  <advance width="0"/>
  <outline>
    <contour>
      <point x="-198" y="816" type="curve"/>
      <point x="-192" y="742" type="line"/>
      <point x="173" y="742" type="line"/>
      <point x="220" y="788" type="line"/>
      <point x="215" y="841" type="line"/>
      <point x="-85" y="841" type="line"/>
      <point x="-116" y="841"/>
      <point x="-159" y="836"/>
    </contour>
    <contour>
      <point x="1" y="650" type="move" name="_top"/>
    </contour>
  </outline>
</glyph>
